<svg width="154" height="20" viewBox="0 0 154 20" fill="none" xmlns="http://www.w3.org/2000/svg">
<g clip-path="url(#clip0_242_615)">
<path d="M72.5777 5.24898L69.5311 2.33752H67.4072L64.3605 5.24898L65.4526 6.29264L67.6972 4.14645V16.3589H48.3484V17.8342H69.241V4.14645L71.4869 6.29264L72.5777 5.24898Z" fill="#0F172A"/>
<path d="M11.2933 11.9623C10.1768 11.9623 9.52485 12.5755 9.29257 13.3457H8.91783V12.0383H7.25977V20.0001H8.91783V16.706H9.29257C9.51458 17.4663 10.1665 17.9839 11.2933 17.9839C12.4752 17.9839 13.7791 16.8004 13.7791 14.9743C13.7791 13.1482 12.4752 11.9623 11.2933 11.9623ZM10.5233 16.6103C9.51843 16.6103 8.92168 15.8745 8.92168 14.9743C8.92168 14.0741 9.51458 13.3371 10.5233 13.3371C11.532 13.3371 12.1262 14.0729 12.1262 14.9743C12.1262 15.8757 11.5358 16.6103 10.5233 16.6103Z" fill="#0F172A"/>
<path d="M49.6547 2.25903C47.6989 2.25903 46.395 3.4425 46.395 5.2686C46.395 7.0947 47.6989 8.28307 49.6547 8.28307C51.6105 8.28307 52.9144 7.10083 52.9144 5.2735C52.9144 3.44618 51.6105 2.25903 49.6547 2.25903ZM49.6547 6.90583C48.6498 6.90583 48.0531 6.17 48.0531 5.2686C48.0531 4.3672 48.6498 3.63259 49.6547 3.63259C50.6595 3.63259 51.2576 4.36843 51.2576 5.2686C51.2576 6.16877 50.6711 6.90583 49.6547 6.90583Z" fill="#0F172A"/>
<path d="M6.04447 2.33386H4.38641V6.81142H1.92241V2.33386H0.265625V8.18375H5.55809V9.80995H7.14942V6.81142H6.04447V2.33386Z" fill="#0F172A"/>
<path d="M56.9595 1.71082C58.307 1.71082 59.0256 1.05592 59.1245 0H57.8321C57.7872 0.380181 57.5665 0.696591 56.9595 0.696591C56.3845 0.696591 56.1304 0.380181 56.0855 0H54.7983C54.892 1.05592 55.6222 1.71082 56.9595 1.71082Z" fill="#0F172A"/>
<path d="M57.1686 2.33386L55.9097 6.75869L55.7993 7.6564H55.4784L55.5439 5.9137V2.33386H53.9089V8.18375H57.0364L58.2851 3.75893L58.3955 2.86121H58.7163L58.6496 4.60391V8.18375H60.2845V2.33386H57.1686Z" fill="#0F172A"/>
<path d="M12.655 3.75893L12.7653 2.86121H13.0849L13.0194 4.60391V8.18375H14.6544V2.33386H11.5385L10.2782 6.75869L10.1679 7.6564H9.84704L9.91377 5.9137V2.33386H8.27881V8.18375H11.4063L12.655 3.75893Z" fill="#0F172A"/>
<path d="M18.9356 8.18366H19.146V10.2955H20.7707V8.18366H20.9799C23.0692 8.18366 24.2178 6.94869 24.2178 5.25872C24.2178 3.5896 23.0461 2.36566 21.0466 2.33377H20.7707V0.116455H19.146V2.33377H18.865C16.8424 2.36566 15.6938 3.5896 15.6938 5.25872C15.699 6.94869 16.8694 8.18366 18.9356 8.18366ZM20.7707 3.60064H20.9799C22.0528 3.63252 22.5494 4.34996 22.5494 5.25872C22.5494 6.18832 22.0528 6.89472 20.9799 6.92661H20.7707V3.60064ZM18.9253 3.60064H19.146V6.92661H18.9035C17.864 6.89472 17.3558 6.19077 17.3558 5.25872C17.3558 4.34996 17.864 3.63252 18.9253 3.60064Z" fill="#0F172A"/>
<path d="M0 17.8881H1.65807V13.4105H4.27607V17.8881H5.93413V12.0382H0V17.8881Z" fill="#0F172A"/>
<path d="M32.6197 13.6117H31.2389V12.0382H29.5808V17.8881H32.6197C34.1995 17.8881 35.0581 17.0296 35.0581 15.7444C35.0581 14.4591 34.1995 13.6117 32.6197 13.6117ZM32.3772 16.5158H31.2389V14.9423H32.3772C33.1831 14.9423 33.4039 15.2268 33.4039 15.7346C33.4039 16.2202 33.1831 16.5158 32.3772 16.5158Z" fill="#0F172A"/>
<path d="M37.6595 12.0382H36.0015V17.8881H37.6595V12.0382Z" fill="#0F172A"/>
<path d="M42.9519 14.9423V14.6467C44.0902 14.4775 44.4213 14.0765 44.4213 13.3688C44.4213 12.5876 43.736 12.0382 42.4873 12.0382H38.9851V17.8881H42.5874C43.9798 17.8881 44.7524 17.3706 44.7524 16.3882C44.7524 15.5445 44.2994 15.0895 42.9519 14.9423ZM40.6201 13.2254H42.0317C42.5733 13.2254 42.7504 13.4473 42.7504 13.7637C42.7504 14.0802 42.5733 14.2923 42.0317 14.2923H40.6201V13.2254ZM42.2114 16.7108H40.6201V15.4598H42.2114C42.8749 15.4598 43.0738 15.7125 43.0738 16.0927C43.0738 16.4728 42.8749 16.7059 42.2114 16.7059V16.7108Z" fill="#0F172A"/>
<path d="M35.8639 2.25903C33.9081 2.25903 32.6042 3.4425 32.6042 5.2686C32.6042 7.0947 33.9081 8.28307 35.8639 8.28307C37.8197 8.28307 39.1236 7.10083 39.1236 5.2735C39.1236 3.44618 37.8197 2.25903 35.8639 2.25903ZM35.8639 6.90583C34.8591 6.90583 34.2623 6.17 34.2623 5.2686C34.2623 4.3672 34.8591 3.63259 35.8639 3.63259C36.8688 3.63259 37.4732 4.37211 37.4732 5.2686C37.4732 6.16509 36.8803 6.90583 35.8639 6.90583Z" fill="#0F172A"/>
<path d="M31.8268 5.2686C31.8268 3.4425 30.5229 2.25903 29.3409 2.25903C28.2244 2.25903 27.5725 2.87223 27.3415 3.6424H26.9655V2.33384H25.3113V10.2956H26.9693V7.00149H27.3454C27.5661 7.76185 28.218 8.27816 29.3448 8.27816C30.5267 8.28307 31.8268 7.09592 31.8268 5.2686ZM28.5671 6.90583C27.5622 6.90583 26.9655 6.17 26.9655 5.2686C26.9655 4.3672 27.5622 3.63259 28.5671 3.63259C29.5719 3.63259 30.17 4.36843 30.17 5.2686C30.17 6.16877 29.5873 6.90583 28.5709 6.90583H28.5671Z" fill="#0F172A"/>
<path d="M44.0851 5.23796V4.9424C45.2234 4.77316 45.5583 4.37213 45.5583 3.6645C45.5583 2.88206 44.873 2.33386 43.6244 2.33386H40.1208V8.18375H43.7232C45.1156 8.18375 45.8894 7.66622 45.8894 6.68388C45.8869 5.83889 45.43 5.38513 44.0851 5.23796ZM41.7545 3.52101H43.1662C43.7078 3.52101 43.8836 3.74299 43.8836 4.0594C43.8836 4.37581 43.7078 4.58797 43.1662 4.58797H41.7545V3.52101ZM43.3459 7.00642H41.7545V5.7555H43.3459C44.0081 5.7555 44.207 6.00813 44.207 6.38831C44.207 6.7685 44.0081 7.00151 43.3459 7.00151V7.00642Z" fill="#0F172A"/>
<path d="M26.1003 11.9623C24.9838 11.9623 24.3319 12.5755 24.0996 13.3457H23.7249V12.0383H22.0732V20.0001H23.7313V16.706H24.106C24.3281 17.4663 24.98 17.9839 26.1068 17.9839C27.2887 17.9839 28.5926 16.8004 28.5926 14.9743C28.5926 13.1482 27.2823 11.9623 26.1003 11.9623ZM25.3303 16.6079C24.3255 16.6079 23.7287 15.872 23.7287 14.9718C23.7287 14.0717 24.3255 13.3346 25.3303 13.3346C26.3352 13.3346 26.9332 14.0704 26.9332 14.9718C26.9332 15.8732 26.3429 16.6103 25.3265 16.6103L25.3303 16.6079Z" fill="#0F172A"/>
<path d="M17.8126 11.9623C15.8568 11.9623 14.553 13.1445 14.553 14.9718C14.553 16.7992 15.8568 17.9814 17.8126 17.9814C19.7684 17.9814 21.0723 16.7979 21.0723 14.9718C21.0723 13.1457 19.7633 11.9623 17.8126 11.9623ZM17.8126 16.6079C16.8065 16.6079 16.211 15.872 16.211 14.9718C16.211 14.0717 16.8065 13.3346 17.8126 13.3346C18.8188 13.3346 19.4155 14.0704 19.4155 14.9718C19.4155 15.8732 18.829 16.6103 17.8126 16.6103V16.6079Z" fill="#0F172A"/>
<path d="M144.632 19.0973H86.8136C85.5834 19.0973 84.3652 18.8658 83.2285 18.4159C82.0919 17.9659 81.0592 17.3065 80.1892 16.4752C79.3193 15.6438 78.6292 14.6569 78.1584 13.5707C77.6876 12.4845 77.4453 11.3204 77.4453 10.1447C77.4453 8.969 77.6876 7.80483 78.1584 6.71864C78.6292 5.63246 79.3193 4.64552 80.1892 3.81419C81.0592 2.98286 82.0919 2.32341 83.2285 1.8735C84.3652 1.42358 85.5834 1.19202 86.8136 1.19202H144.632C145.862 1.19202 147.08 1.42358 148.217 1.8735C149.353 2.32341 150.386 2.98286 151.256 3.81419C152.126 4.64552 152.816 5.63246 153.287 6.71864C153.758 7.80483 154 8.969 154 10.1447C154 11.3204 153.758 12.4845 153.287 13.5707C152.816 14.6569 152.126 15.6438 151.256 16.4752C150.386 17.3065 149.353 17.9659 148.217 18.4159C147.08 18.8658 145.862 19.0973 144.632 19.0973ZM86.8136 2.04313C85.6913 2.02994 84.5774 2.22979 83.5365 2.63111C82.4956 3.03242 81.5484 3.62721 80.7499 4.38099C79.9513 5.13477 79.3173 6.03253 78.8846 7.02224C78.4519 8.01195 78.2291 9.0739 78.2291 10.1465C78.2291 11.2191 78.4519 12.2811 78.8846 13.2708C79.3173 14.2605 79.9513 15.1583 80.7499 15.912C81.5484 16.6658 82.4956 17.2606 83.5365 17.6619C84.5774 18.0632 85.6913 18.2631 86.8136 18.2499H144.632C145.754 18.2631 146.868 18.0632 147.909 17.6619C148.95 17.2606 149.897 16.6658 150.695 15.912C151.494 15.1583 152.128 14.2605 152.561 13.2708C152.993 12.2811 153.216 11.2191 153.216 10.1465C153.216 9.0739 152.993 8.01195 152.561 7.02224C152.128 6.03253 151.494 5.13477 150.695 4.38099C149.897 3.62721 148.95 3.03242 147.909 2.63111C146.868 2.22979 145.754 2.02994 144.632 2.04313H86.8136Z" fill="#03FE33"/>
<path d="M91.1526 7.04078C91.7809 7.02734 92.3985 7.19791 92.9224 7.52959C93.4464 7.86127 93.8516 8.33818 94.0837 8.89631L92.6181 9.38686C92.5019 9.10719 92.2996 8.86785 92.0379 8.70053C91.7761 8.53321 91.4674 8.44581 91.1526 8.4499C90.2427 8.4499 89.5458 9.15017 89.5458 10.0761C89.5458 11.002 90.2427 11.7133 91.1526 11.7133C91.4684 11.7149 91.7773 11.6251 92.0388 11.456C92.3003 11.2868 92.5023 11.0461 92.6181 10.7653L94.0837 11.2559C93.8512 11.8136 93.4458 12.2899 92.9219 12.6212C92.398 12.9524 91.7806 13.1226 91.1526 13.109C89.2969 13.109 87.8916 11.798 87.8916 10.0822C87.8916 8.36651 89.2969 7.04078 91.1526 7.04078Z" fill="#0F172A"/>
<path d="M101.173 10.6132H96.4696C96.5712 10.9213 96.7637 11.1949 97.024 11.401C97.2843 11.607 97.6014 11.7369 97.9371 11.775C98.2728 11.8131 98.6128 11.7577 98.9164 11.6156C99.22 11.4735 99.4741 11.2506 99.6484 10.9738L100.961 11.5392C100.429 12.4541 99.4123 13.0979 98.0891 13.0979C96.2334 13.0979 94.8269 11.7869 94.8269 10.0712C94.8269 8.35545 96.2103 7.04444 98.0352 7.04444C100.074 7.04076 101.504 8.66695 101.173 10.6132ZM96.494 9.44571H99.574C99.4788 9.12545 99.2753 8.84431 98.9953 8.64619C98.7153 8.44807 98.3746 8.34411 98.0263 8.35055C97.6817 8.35178 97.3467 8.45892 97.0707 8.65614C96.7948 8.85337 96.5926 9.13019 96.494 9.44571Z" fill="#0F172A"/>
<path d="M107.223 11.4791C107.223 12.4725 106.101 13.0942 104.588 13.0942C103.477 13.0942 102.406 12.7435 101.74 12.1131L102.614 11.0866C103.17 11.5944 104.044 11.7857 104.588 11.7857C105.262 11.7857 105.568 11.5404 105.568 11.2436C105.568 10.8033 105.072 10.6905 104.352 10.6905H103.465V9.44572H104.352C105.072 9.44572 105.568 9.33289 105.568 8.89262C105.568 8.59951 105.262 8.35055 104.588 8.35055C104.044 8.35055 103.17 8.5431 102.614 9.06186L101.74 8.02311C102.401 7.39029 103.477 7.04199 104.588 7.04199C106.101 7.04199 107.223 7.66255 107.223 8.66819C107.223 9.31204 106.709 9.91052 105.509 10.0687C106.703 10.2257 107.223 10.8242 107.223 11.4791Z" fill="#0F172A"/>
<path d="M111.441 7.04077C113.297 7.04077 114.703 8.35056 114.703 10.0675C114.703 11.7845 113.291 13.0942 111.441 13.0942C109.59 13.0942 108.185 11.7832 108.185 10.0675C108.185 8.35179 109.585 7.04077 111.441 7.04077ZM111.441 11.7011C112.362 11.7011 113.048 11.0008 113.048 10.0638C113.048 9.12687 112.362 8.43763 111.441 8.43763C110.519 8.43763 109.834 9.14158 109.834 10.0675C109.834 10.9934 110.531 11.7047 111.441 11.7047V11.7011Z" fill="#0F172A"/>
<path d="M115.8 12.9801V7.15356H117.397V9.40031H120.161V7.15356H121.756V12.9801H120.161V10.7359H117.397V12.9801H115.8Z" fill="#0F172A"/>
<path d="M124.001 7.05665C124.281 7.05987 124.548 7.16837 124.745 7.35865C124.942 7.54893 125.053 7.80569 125.053 8.07333C125.053 8.34134 124.942 8.59838 124.744 8.78789C124.545 8.97741 124.276 9.08387 123.996 9.08387C123.715 9.08387 123.446 8.97741 123.248 8.78789C123.05 8.59838 122.938 8.34134 122.938 8.07333C122.938 7.93974 122.965 7.80734 123.018 7.68378C123.071 7.56022 123.149 7.44793 123.248 7.35341C123.347 7.25889 123.464 7.184 123.593 7.13307C123.723 7.08213 123.861 7.05616 124.001 7.05665ZM124.001 11.0657C124.281 11.0689 124.548 11.1774 124.745 11.3677C124.942 11.558 125.053 11.8148 125.053 12.0824C125.053 12.3504 124.942 12.6075 124.744 12.797C124.545 12.9865 124.276 13.093 123.996 13.093C123.715 13.093 123.446 12.9865 123.248 12.797C123.05 12.6075 122.938 12.3504 122.938 12.0824C122.937 11.9484 122.963 11.8155 123.016 11.6913C123.069 11.5672 123.147 11.4544 123.246 11.3593C123.345 11.2643 123.463 11.1889 123.592 11.1377C123.722 11.0865 123.861 11.0603 124.001 11.0608V11.0657Z" fill="#0F172A"/>
<path d="M132.982 7.15356H135.877V12.9801H134.377V7.49205L132.721 12.9801H129.826V7.15356H131.327V12.687L132.982 7.15356Z" fill="#0F172A"/>
<path d="M140.366 7.15356H143.262V12.9801H141.761V7.49205L140.107 12.9801H137.211V7.15356H138.712V12.687L140.366 7.15356Z" fill="#0F172A"/>
</g>
<defs>
<clipPath id="clip0_242_615">
<rect width="154" height="20" fill="white"/>
</clipPath>
</defs>
</svg>
